<mxfile host="app.diagrams.net" modified="2024-04-09T10:11:54.893Z" agent="Mozilla/5.0 (Windows NT 10.0; Win64; x64) AppleWebKit/537.36 (KHTML, like Gecko) Chrome/123.0.0.0 Safari/537.36 Edg/123.0.0.0" etag="Xcot1j1jB6sM2e8ljmL1" version="24.2.3" type="github">
  <diagram id="R2lEEEUBdFMjLlhIrx00" name="Page-1">
    <mxGraphModel dx="836" dy="880" grid="1" gridSize="10" guides="1" tooltips="1" connect="1" arrows="1" fold="1" page="1" pageScale="1" pageWidth="850" pageHeight="1100" math="0" shadow="0" extFonts="Permanent Marker^https://fonts.googleapis.com/css?family=Permanent+Marker">
      <root>
        <mxCell id="0" />
        <mxCell id="1" parent="0" />
        <mxCell id="C-vyLk0tnHw3VtMMgP7b-1" value="" style="edgeStyle=entityRelationEdgeStyle;endArrow=ERzeroToMany;startArrow=ERone;endFill=1;startFill=0;" parent="1" target="C-vyLk0tnHw3VtMMgP7b-6" edge="1">
          <mxGeometry width="100" height="100" relative="1" as="geometry">
            <mxPoint x="320.0000000000001" y="55" as="sourcePoint" />
            <mxPoint x="440" y="620" as="targetPoint" />
          </mxGeometry>
        </mxCell>
        <mxCell id="C-vyLk0tnHw3VtMMgP7b-12" value="" style="edgeStyle=entityRelationEdgeStyle;endArrow=ERzeroToMany;startArrow=ERone;endFill=1;startFill=0;" parent="1" target="C-vyLk0tnHw3VtMMgP7b-17" edge="1">
          <mxGeometry width="100" height="100" relative="1" as="geometry">
            <mxPoint x="700" y="55" as="sourcePoint" />
            <mxPoint x="460" y="205" as="targetPoint" />
          </mxGeometry>
        </mxCell>
        <mxCell id="TxHeuP1p4Xf1kxtBYYIb-6" style="edgeStyle=none;curved=1;rounded=0;orthogonalLoop=1;jettySize=auto;html=1;exitX=0.5;exitY=0.5;exitDx=0;exitDy=0;exitPerimeter=0;fontSize=12;startSize=8;endSize=8;" edge="1" parent="1" source="TxHeuP1p4Xf1kxtBYYIb-1" target="TxHeuP1p4Xf1kxtBYYIb-5">
          <mxGeometry relative="1" as="geometry" />
        </mxCell>
        <mxCell id="TxHeuP1p4Xf1kxtBYYIb-1" value="Utilisateur" style="shape=umlActor;verticalLabelPosition=bottom;verticalAlign=top;html=1;outlineConnect=0;" vertex="1" parent="1">
          <mxGeometry x="50" y="50" width="30" height="60" as="geometry" />
        </mxCell>
        <mxCell id="TxHeuP1p4Xf1kxtBYYIb-2" value="" style="swimlane;startSize=0;" vertex="1" parent="1">
          <mxGeometry x="401" y="40" width="399" height="526" as="geometry" />
        </mxCell>
        <mxCell id="TxHeuP1p4Xf1kxtBYYIb-3" value="Station blanche" style="text;html=1;align=center;verticalAlign=middle;resizable=0;points=[];autosize=1;strokeColor=none;fillColor=none;fontSize=16;" vertex="1" parent="TxHeuP1p4Xf1kxtBYYIb-2">
          <mxGeometry x="113" y="5" width="130" height="30" as="geometry" />
        </mxCell>
        <mxCell id="TxHeuP1p4Xf1kxtBYYIb-4" style="edgeStyle=none;curved=1;rounded=0;orthogonalLoop=1;jettySize=auto;html=1;fontSize=12;startSize=8;endSize=8;" edge="1" parent="TxHeuP1p4Xf1kxtBYYIb-2" source="TxHeuP1p4Xf1kxtBYYIb-3" target="TxHeuP1p4Xf1kxtBYYIb-2">
          <mxGeometry relative="1" as="geometry" />
        </mxCell>
        <mxCell id="TxHeuP1p4Xf1kxtBYYIb-5" value="Soumet sa clé" style="ellipse;whiteSpace=wrap;html=1;" vertex="1" parent="1">
          <mxGeometry x="140" y="80" width="120" height="80" as="geometry" />
        </mxCell>
        <mxCell id="TxHeuP1p4Xf1kxtBYYIb-11" style="edgeStyle=none;curved=1;rounded=0;orthogonalLoop=1;jettySize=auto;html=1;exitX=0.5;exitY=0.5;exitDx=0;exitDy=0;exitPerimeter=0;entryX=0;entryY=0.5;entryDx=0;entryDy=0;fontSize=12;startSize=8;endSize=8;" edge="1" parent="1" source="TxHeuP1p4Xf1kxtBYYIb-7" target="TxHeuP1p4Xf1kxtBYYIb-10">
          <mxGeometry relative="1" as="geometry" />
        </mxCell>
        <mxCell id="TxHeuP1p4Xf1kxtBYYIb-7" value="Administrateur" style="shape=umlActor;verticalLabelPosition=bottom;verticalAlign=top;html=1;outlineConnect=0;" vertex="1" parent="1">
          <mxGeometry x="50" y="200" width="30" height="60" as="geometry" />
        </mxCell>
        <mxCell id="TxHeuP1p4Xf1kxtBYYIb-8" style="edgeStyle=none;curved=1;rounded=0;orthogonalLoop=1;jettySize=auto;html=1;exitX=0.5;exitY=1;exitDx=0;exitDy=0;entryX=1;entryY=0.3333333333333333;entryDx=0;entryDy=0;entryPerimeter=0;fontSize=12;startSize=8;endSize=8;" edge="1" parent="1" source="TxHeuP1p4Xf1kxtBYYIb-5" target="TxHeuP1p4Xf1kxtBYYIb-7">
          <mxGeometry relative="1" as="geometry" />
        </mxCell>
        <mxCell id="TxHeuP1p4Xf1kxtBYYIb-10" value="Intègre la clé USB dans le process" style="ellipse;whiteSpace=wrap;html=1;" vertex="1" parent="1">
          <mxGeometry x="200" y="230" width="120" height="80" as="geometry" />
        </mxCell>
        <mxCell id="TxHeuP1p4Xf1kxtBYYIb-12" style="edgeStyle=none;curved=1;rounded=0;orthogonalLoop=1;jettySize=auto;html=1;exitX=1;exitY=0.5;exitDx=0;exitDy=0;entryX=0.005;entryY=0.405;entryDx=0;entryDy=0;entryPerimeter=0;fontSize=12;startSize=8;endSize=8;" edge="1" parent="1" source="TxHeuP1p4Xf1kxtBYYIb-10" target="TxHeuP1p4Xf1kxtBYYIb-2">
          <mxGeometry relative="1" as="geometry" />
        </mxCell>
      </root>
    </mxGraphModel>
  </diagram>
</mxfile>
